<svg xmlns="http://www.w3.org/2000/svg" xmlns:xlink="http://www.w3.org/1999/xlink" preserveAspectRatio="xMidYMid" width="15" height="15" viewBox="0 0 15 15">
  <defs>
    <style>
      .cls-1 {
        fill: #e34449;
        fill-rule: evenodd;
      }
    </style>
  </defs>
  <path d="M10.391,6.344 C10.391,8.572 8.578,10.386 6.350,10.386 C4.122,10.386 2.309,8.572 2.309,6.344 C2.309,4.116 4.122,2.303 6.350,2.303 C8.578,2.303 10.391,4.116 10.391,6.344 ZM15.010,13.849 C15.010,13.543 14.884,13.245 14.676,13.038 L11.582,9.943 C12.313,8.888 12.701,7.625 12.701,6.344 C12.701,2.835 9.859,-0.006 6.350,-0.006 C2.841,-0.006 -0.000,2.835 -0.000,6.344 C-0.000,9.853 2.841,12.695 6.350,12.695 C7.631,12.695 8.894,12.307 9.949,11.576 L13.043,14.661 C13.251,14.878 13.549,15.004 13.855,15.004 C14.487,15.004 15.010,14.481 15.010,13.849 Z" class="cls-1"/>
</svg>
