<svg xmlns="http://www.w3.org/2000/svg" xmlns:xlink="http://www.w3.org/1999/xlink" width="50" height="50" viewBox="0 0 50 50">
    <defs>
        <path id="a" d="M16.601 10.14a6.47 6.47 0 0 1-6.468 6.474 6.47 6.47 0 0 1-6.468-6.473 6.47 6.47 0 0 1 6.468-6.473 6.481 6.481 0 0 1 6.468 6.473zM24 22.157a1.803 1.803 0 0 0-.54-1.291l-4.953-4.957a10.16 10.16 0 0 0-1.871-13.56 10.14 10.14 0 0 0-13.664.626 10.16 10.16 0 0 0-.626 13.675 10.141 10.141 0 0 0 13.55 1.873l4.952 4.941c.345.35.816.545 1.306.54A1.856 1.856 0 0 0 24 22.157z"/>
    </defs>
    <g fill="none" fill-rule="evenodd">
        <path d="M0 0h50v50H0z"/>
        <g transform="translate(13 13)">
            <use fill="#E34449" xlink:href="#a"/>
            <path d="M-14-14h52v52h-52z"/>
        </g>
    </g>
</svg>
