<?xml version="1.0" encoding="UTF-8"?>
<svg width="50px" height="50px" viewBox="0 0 50 50" version="1.1" xmlns="http://www.w3.org/2000/svg" xmlns:xlink="http://www.w3.org/1999/xlink">
    <!-- Generator: Sketch 47.1 (45422) - http://www.bohemiancoding.com/sketch -->
    <title>icons/search</title>
    <desc>Created with Sketch.</desc>
    <defs></defs>
    <g id="Symbols" stroke="none" stroke-width="1" fill="none" fill-rule="evenodd">
        <g id="icons/search">
            <g id="search">
                <rect id="Rectangle-5" x="0" y="0" width="50" height="50"></rect>
                <path d="M29.6012762,23.1409483 C29.6012762,26.7160575 26.7053418,29.6142561 23.1330257,29.6142561 C19.5607096,29.6142561 16.6647752,26.7160575 16.6647752,23.1409483 C16.6647752,19.5658391 19.5607096,16.6676405 23.1330257,16.6676405 C26.7029433,16.673429 29.5954923,19.5682395 29.6012762,23.1409483 Z M36.9999943,35.1563688 C37.001218,34.6705394 36.8064059,34.2047912 36.4597228,33.8647111 L31.507234,28.9083501 C34.4789238,24.5835435 33.6676168,18.7049383 29.635796,15.348199 C25.6039751,11.9914598 19.6804038,12.2628637 15.9719217,15.9742454 C12.2634396,19.685627 11.9922477,25.6138297 15.3463645,29.6488028 C18.7004813,33.683776 24.5744939,34.4957173 28.8959217,31.5217041 L33.8484105,36.4630457 C34.1926445,36.8125874 34.663689,37.0076547 35.1540666,37.0037396 C36.1714965,36.9988087 36.9950672,36.1745941 36.9999943,35.1563688 Z" fill="#303030"></path>
            </g>
        </g>
    </g>
</svg>